<?xml version="1.0" encoding="UTF-8"?>
<svg version="1.1" xmlns="http://www.w3.org/2000/svg" width="500" height="500">
<path d="M0 0 C0 0.66 0 1.32 0 2 C1.11375 2.4021875 1.11375 2.4021875 2.25 2.8125 C4.89061949 3.95276751 6.85552844 5.09380306 9 7 C9 7.66 9 8.32 9 9 C9.5775 9.2475 10.155 9.495 10.75 9.75 C13.32939979 11.18299988 15.06121592 12.78424676 17 15 C17 15.66 17 16.32 17 17 C17.66 17 18.32 17 19 17 C37.31167875 38.06272908 45.25910874 64.45699624 44 92 C41.68549046 116.90727879 33.45528379 141.2017558 15 159 C14.34 159 13.68 159 13 159 C13 159.66 13 160.32 13 161 C11.26608049 162.60634015 9.461909 164.1375287 7.625 165.625 C6.62726563 166.44226563 5.62953125 167.25953125 4.6015625 168.1015625 C2 170 2 170 0 170 C0 170.66 0 171.32 0 172 C-8.03334536 176.86541778 -15.98789916 181.32264103 -24.875 184.4375 C-25.87067993 184.78868896 -25.87067993 184.78868896 -26.88647461 185.14697266 C-35.52736966 188.03330639 -44.16775383 189.32553256 -53.25 189.6875 C-54.16604004 189.72512451 -55.08208008 189.76274902 -56.02587891 189.80151367 C-82.29290688 190.71769801 -105.72331614 183.05466804 -126.1953125 166.4453125 C-128.14841445 164.83811152 -128.14841445 164.83811152 -131 163 C-131 162.34 -131 161.68 -131 161 C-131.66 161 -132.32 161 -133 161 C-133 160.34 -133 159.68 -133 159 C-133.66 159 -134.32 159 -135 159 C-135 158.34 -135 157.68 -135 157 C-135.66 157 -136.32 157 -137 157 C-154.84310146 137.03429911 -163.44603925 113.16693546 -163.4375 86.5625 C-163.4385675 85.85579163 -163.43963501 85.14908325 -163.44073486 84.42095947 C-163.41515218 72.66987104 -162.16974882 62.04501783 -158 51 C-157.65509521 50.039729 -157.65509521 50.039729 -157.30322266 49.06005859 C-147.92253648 23.33453919 -127.49430789 2.66881612 -103 -9 C-70.87684219 -22.81768185 -28.73843755 -22.31373877 0 0 Z M-55 -6 C-55.09909741 -3.88886862 -55.12632359 -1.77435976 -55.12698364 0.33909607 C-55.12854363 1.00920355 -55.13010362 1.67931104 -55.13171089 2.36972481 C-55.13572361 4.63249141 -55.13252995 6.8951918 -55.12939453 9.15795898 C-55.13074867 10.77420084 -55.13252867 12.39044239 -55.13470459 14.00668335 C-55.1392836 18.41472457 -55.13748583 22.82274252 -55.1343255 27.23078418 C-55.13179696 31.85218542 -55.13414151 36.47358464 -55.13571167 41.09498596 C-55.13753501 48.87558347 -55.13512599 56.65617151 -55.13037109 64.43676758 C-55.12496061 73.39268113 -55.12666688 82.34857181 -55.1321975 91.30448478 C-55.13676294 99.00918313 -55.13736154 106.71387465 -55.13475883 114.41857392 C-55.13321062 119.01228811 -55.13296124 123.60599164 -55.13629532 128.19970512 C-55.13922288 132.53758539 -55.1371104 136.87543685 -55.13140106 141.21331406 C-55.13009787 142.79089752 -55.130425 144.36848349 -55.13266373 145.9460659 C-55.14687598 156.99624087 -54.70990659 167.97273644 -54 179 C-31.77864522 177.11683434 -11.0692047 168.67727288 5 153 C5 152.34 5 151.68 5 151 C6.98 150.01 6.98 150.01 9 149 C9 148.34 9 147.68 9 147 C9.66 147 10.32 147 11 147 C12.53751108 145.07282501 13.93576158 143.16314874 15.3125 141.125 C15.71766846 140.5278418 16.12283691 139.93068359 16.5402832 139.31542969 C21.59735825 131.74249276 25.11506159 123.9886712 28.1875 115.4375 C28.43781982 114.74108398 28.68813965 114.04466797 28.94604492 113.32714844 C37.11567095 89.77696505 33.55765664 65.17107894 23 43 C20.85206358 39.18883847 18.50882155 35.58151861 16 32 C15.51015625 31.26394531 15.0203125 30.52789062 14.515625 29.76953125 C13.40654167 28.13526434 12.21257455 26.55902442 11 25 C10.34 25 9.68 25 9 25 C8.75507813 24.42507812 8.51015625 23.85015625 8.2578125 23.2578125 C-0.10301444 8.2498685 -22.5164815 -0.34084129 -37.90209961 -4.76025391 C-46.76427147 -7.78792724 -46.76427147 -7.78792724 -55 -6 Z " fill="#0E1216" transform="translate(310,164)"/>
<path d="M0 0 C15.41406756 1.75159859 32.57978146 7.35641685 45 17 C45 17.66 45 18.32 45 19 C45.7425 19.268125 46.485 19.53625 47.25 19.8125 C49.89061949 20.95276751 51.85552844 22.09380306 54 24 C54 24.66 54 25.32 54 26 C54.5775 26.2475 55.155 26.495 55.75 26.75 C58.32939979 28.18299988 60.06121592 29.78424676 62 32 C62 32.66 62 33.32 62 34 C62.66 34 63.32 34 64 34 C82.31167875 55.06272908 90.25910874 81.45699624 89 109 C86.68549046 133.90727879 78.45528379 158.2017558 60 176 C59.34 176 58.68 176 58 176 C58 176.66 58 177.32 58 178 C56.26608049 179.60634015 54.461909 181.1375287 52.625 182.625 C51.62726563 183.44226563 50.62953125 184.25953125 49.6015625 185.1015625 C47 187 47 187 45 187 C45 187.66 45 188.32 45 189 C42.4842629 190.46776498 39.96301018 191.92422235 37.4375 193.375 C36.38079102 193.99375 36.38079102 193.99375 35.30273438 194.625 C30.92349986 197.12741972 26.90905379 198.8259556 22 200 C22.99 197.69 23.98 195.38 25 193 C25.66 193 26.32 193 27 193 C27.495 190.03 27.495 190.03 28 187 C27.34 186.67 26.68 186.34 26 186 C27.07378906 185.34773437 28.14757812 184.69546875 29.25390625 184.0234375 C30.69030158 183.14094625 32.12648839 182.25811551 33.5625 181.375 C34.26697266 180.94832031 34.97144531 180.52164063 35.69726562 180.08203125 C41.79452827 176.31690132 47.29732994 172.2325235 51.8125 166.625 C52.534375 165.75875 53.25625 164.8925 54 164 C54.66 164 55.32 164 56 164 C56.27199219 163.42507813 56.54398437 162.85015625 56.82421875 162.2578125 C58.00715392 159.98626258 59.34566373 157.97269197 60.8125 155.875 C65.76264003 148.46776867 69.1952786 140.80112373 72.1875 132.4375 C72.43757813 131.74140625 72.68765625 131.0453125 72.9453125 130.328125 C81.11841929 106.78074165 77.55768323 82.16862701 67 60 C64.27271449 55.14886308 61.33186514 50.61423937 57.7890625 46.3203125 C56 44 56 44 56 42 C55.34 42 54.68 42 54 42 C52.97350723 40.87474845 52.00412304 39.69717355 51.0625 38.5 C46.69065321 33.3662546 41.58427867 29.72543418 36 26 C35.18402344 25.45214844 34.36804688 24.90429688 33.52734375 24.33984375 C21.35702124 16.60228911 5.50497353 10.80678745 -9 11 C-8.99777939 11.89820969 -8.99555878 12.79641937 -8.99327087 13.72184753 C-8.97312976 22.23844407 -8.95795595 30.75503246 -8.94818783 39.27164745 C-8.94299694 43.6488008 -8.93596926 48.02593426 -8.92456055 52.40307617 C-8.91359551 56.63709518 -8.90769469 60.87109521 -8.90512276 65.10512733 C-8.9032928 66.71042491 -8.89972014 68.3157216 -8.89426994 69.92101097 C-8.86362038 79.33351762 -9.09426026 88.6192938 -10 98 C-10.33 98 -10.66 98 -11 98 C-11.02312241 86.54349984 -11.04091457 75.08700519 -11.05181217 63.63048649 C-11.05704122 58.31134787 -11.06413927 52.99222516 -11.07543945 47.6730957 C-11.08626755 42.54436015 -11.09227667 37.41563994 -11.09487724 32.28689384 C-11.09673163 30.32558386 -11.10035251 28.36427476 -11.10573006 26.40297127 C-11.11293946 23.66584553 -11.11399099 20.92878403 -11.11352539 18.19165039 C-11.11712067 17.37238068 -11.12071594 16.55311096 -11.12442017 15.70901489 C-11.11405216 10.11405216 -11.11405216 10.11405216 -10 9 C-7.66702567 8.95907063 -5.33294775 8.95758277 -3 9 C-3 8.34 -3 7.68 -3 7 C-1.37446717 5.29319053 0.29115995 3.62339805 2 2 C1.34 1.34 0.68 0.68 0 0 Z " fill="#232328" transform="translate(265,147)"/>
<path d="M0 0 C15.41406756 1.75159859 32.57978146 7.35641685 45 17 C45 17.66 45 18.32 45 19 C45.7425 19.268125 46.485 19.53625 47.25 19.8125 C49.89061949 20.95276751 51.85552844 22.09380306 54 24 C54 24.66 54 25.32 54 26 C54.5775 26.2475 55.155 26.495 55.75 26.75 C58.32939979 28.18299988 60.06121592 29.78424676 62 32 C62 32.66 62 33.32 62 34 C62.66 34 63.32 34 64 34 C72.48625989 43.76119096 80.19845882 56.33469925 83 69 C80.36 69.33 77.72 69.66 75 70 C74.67 71.65 74.34 73.3 74 75 C71.94973122 71.92459682 70.79172812 69.05879779 69.4375 65.625 C66.71670678 58.96531786 63.10965877 53.42367381 58.85546875 47.64453125 C57 45 57 45 56 42 C55.34 42 54.68 42 54 42 C52.97350723 40.87474845 52.00412304 39.69717355 51.0625 38.5 C46.69065321 33.3662546 41.58427867 29.72543418 36 26 C35.18402344 25.45214844 34.36804688 24.90429688 33.52734375 24.33984375 C21.35702124 16.60228911 5.50497353 10.80678745 -9 11 C-8.99777939 11.89820969 -8.99555878 12.79641937 -8.99327087 13.72184753 C-8.97312976 22.23844407 -8.95795595 30.75503246 -8.94818783 39.27164745 C-8.94299694 43.6488008 -8.93596926 48.02593426 -8.92456055 52.40307617 C-8.91359551 56.63709518 -8.90769469 60.87109521 -8.90512276 65.10512733 C-8.9032928 66.71042491 -8.89972014 68.3157216 -8.89426994 69.92101097 C-8.86362038 79.33351762 -9.09426026 88.6192938 -10 98 C-10.33 98 -10.66 98 -11 98 C-11.02312241 86.54349984 -11.04091457 75.08700519 -11.05181217 63.63048649 C-11.05704122 58.31134787 -11.06413927 52.99222516 -11.07543945 47.6730957 C-11.08626755 42.54436015 -11.09227667 37.41563994 -11.09487724 32.28689384 C-11.09673163 30.32558386 -11.10035251 28.36427476 -11.10573006 26.40297127 C-11.11293946 23.66584553 -11.11399099 20.92878403 -11.11352539 18.19165039 C-11.11712067 17.37238068 -11.12071594 16.55311096 -11.12442017 15.70901489 C-11.11405216 10.11405216 -11.11405216 10.11405216 -10 9 C-7.66702567 8.95907063 -5.33294775 8.95758277 -3 9 C-3 8.34 -3 7.68 -3 7 C-1.37446717 5.29319053 0.29115995 3.62339805 2 2 C1.34 1.34 0.68 0.68 0 0 Z " fill="#292A2F" transform="translate(265,147)"/>
<path d="M0 0 C15.4055261 1.75062797 30.2115451 7.20793725 43 16 C42.360625 16.391875 41.72125 16.78375 41.0625 17.1875 C38.82641348 18.86526578 38.82641348 18.86526578 38.0625 21.5 C37.73136871 24.05887761 37.73136871 24.05887761 39.4375 25.8125 C39.953125 26.204375 40.46875 26.59625 41 27 C41.495 26.505 41.495 26.505 42 26 C42 25.34 42 24.68 42 24 C43.32 23.67 44.64 23.34 46 23 C45.67 24.98 45.34 26.96 45 29 C45.99 29.33 46.98 29.66 48 30 C47.67 31.32 47.34 32.64 47 34 C45.98292969 33.23816406 45.98292969 33.23816406 44.9453125 32.4609375 C29.32546815 20.90831024 10.98653316 10.73377069 -9 11 C-8.99777939 11.89820969 -8.99555878 12.79641937 -8.99327087 13.72184753 C-8.97312976 22.23844407 -8.95795595 30.75503246 -8.94818783 39.27164745 C-8.94299694 43.6488008 -8.93596926 48.02593426 -8.92456055 52.40307617 C-8.91359551 56.63709518 -8.90769469 60.87109521 -8.90512276 65.10512733 C-8.9032928 66.71042491 -8.89972014 68.3157216 -8.89426994 69.92101097 C-8.86362038 79.33351762 -9.09426026 88.6192938 -10 98 C-10.33 98 -10.66 98 -11 98 C-11.02312241 86.54349984 -11.04091457 75.08700519 -11.05181217 63.63048649 C-11.05704122 58.31134787 -11.06413927 52.99222516 -11.07543945 47.6730957 C-11.08626755 42.54436015 -11.09227667 37.41563994 -11.09487724 32.28689384 C-11.09673163 30.32558386 -11.10035251 28.36427476 -11.10573006 26.40297127 C-11.11293946 23.66584553 -11.11399099 20.92878403 -11.11352539 18.19165039 C-11.11712067 17.37238068 -11.12071594 16.55311096 -11.12442017 15.70901489 C-11.11405216 10.11405216 -11.11405216 10.11405216 -10 9 C-7.66702567 8.95907063 -5.33294775 8.95758277 -3 9 C-3 8.34 -3 7.68 -3 7 C-1.37446717 5.29319053 0.29115995 3.62339805 2 2 C1.34 1.34 0.68 0.68 0 0 Z " fill="#38383C" transform="translate(265,147)"/>
<path d="M0 0 C1.51953125 1.890625 1.51953125 1.890625 2.8125 4.25 C3.25207031 5.01828125 3.69164062 5.7865625 4.14453125 6.578125 C5.20310266 9.57499384 4.98477368 10.99686665 4 14 C2.16162109 15.33032227 2.16162109 15.33032227 -0.2265625 16.31640625 C-1.52787109 16.87424805 -1.52787109 16.87424805 -2.85546875 17.44335938 C-4.22638672 17.99733398 -4.22638672 17.99733398 -5.625 18.5625 C-7.41026227 19.31044997 -9.19414548 20.06170096 -10.9765625 20.81640625 C-11.83668945 21.17492676 -12.69681641 21.53344727 -13.58300781 21.90283203 C-15.80065882 22.90951119 -17.77999397 24.04220351 -19.8359375 25.33984375 C-23 27 -23 27 -25.7578125 27.015625 C-28.61188699 25.72283864 -29.41015593 24.49771994 -30.875 21.75 C-31.30554688 20.98171875 -31.73609375 20.2134375 -32.1796875 19.421875 C-33.22043167 16.34920174 -33.33434596 14.98036397 -32 12 C-29.10546875 10.515625 -29.10546875 10.515625 -27.19287109 9.82226562 C-24.65378835 8.87018027 -22.28686352 7.70039461 -19.86328125 6.484375 C-18.95642578 6.03835937 -18.04957031 5.59234375 -17.11523438 5.1328125 C-15.23110371 4.20322051 -13.35092766 3.26557402 -11.47460938 2.3203125 C-10.57162109 1.87945312 -9.66863281 1.43859375 -8.73828125 0.984375 C-7.92399658 0.57928711 -7.10971191 0.17419922 -6.27075195 -0.24316406 C-3.67232224 -1.10921418 -2.51044878 -1.03579863 0 0 Z " fill="#202227" transform="translate(380,180)"/>
<path d="M0 0 C4.30911185 0.49756887 8.19128583 1.63159057 12.2734375 3.06640625 C13.42714844 3.46923828 14.58085937 3.87207031 15.76953125 4.28710938 C16.95933594 4.70798828 18.14914062 5.12886719 19.375 5.5625 C21.19451172 6.19961914 21.19451172 6.19961914 23.05078125 6.84960938 C26.03540754 7.89540363 29.01838236 8.94566493 32 10 C32.8573874 14.43918336 33.10728293 16.78543414 31.0625 20.875 C30.68222656 21.65617187 30.30195313 22.43734375 29.91015625 23.2421875 C29.60980469 23.82226562 29.30945313 24.40234375 29 25 C23.9051857 25.34755322 19.96728982 24.13007768 15.3125 22.25 C13.90252887 21.70004598 12.49237149 21.15056925 11.08203125 20.6015625 C10.39318848 20.32989258 9.7043457 20.05822266 8.99462891 19.77832031 C6.17996331 18.68001506 3.34212959 17.64978862 0.5 16.625 C-0.3765625 16.30789063 -1.253125 15.99078125 -2.15625 15.6640625 C-2.7646875 15.44492187 -3.373125 15.22578125 -4 15 C-4.34650743 9.34037856 -3.48055609 5.96111218 -1 1 C-0.67 0.67 -0.34 0.34 0 0 Z " fill="#25262B" transform="translate(358,279)"/>
<path d="M0 0 C3.4375 1.5625 3.4375 1.5625 6 3 C6.35843297 8.1295741 5.09308736 12.0725474 3.1875 16.75 C2.63279225 18.16173203 2.08070259 19.5744956 1.53125 20.98828125 C1.26570313 21.67100098 1.00015625 22.3537207 0.7265625 23.05712891 C-0.52692213 26.40902095 -1.50730871 29.82956312 -2.45703125 33.27734375 C-3 35 -3 35 -4 36 C-8.74047643 35.87267315 -13.87420085 35.44969325 -18 33 C-19.283859 29.74298252 -18.85876122 27.77775649 -17.671875 24.55078125 C-17.36636719 23.70193359 -17.06085938 22.85308594 -16.74609375 21.97851562 C-16.41738281 21.09873047 -16.08867187 20.21894531 -15.75 19.3125 C-15.11916639 17.57965459 -14.48895404 15.84658287 -13.859375 14.11328125 C-13.54677734 13.26717285 -13.23417969 12.42106445 -12.91210938 11.54931641 C-11.74869851 8.2976204 -10.72113292 5.00871703 -9.71972656 1.70385742 C-7.93084797 -2.53107599 -3.66735158 -0.73347032 0 0 Z " fill="#101217" transform="translate(298,110)"/>
<path d="M0 0 C1.77685547 2.62036133 1.77685547 2.62036133 3.3671875 6.08203125 C3.65103302 6.69261887 3.93487854 7.30320648 4.22732544 7.93229675 C4.82261471 9.22364174 5.40875995 10.51923591 5.98632812 11.81860352 C6.87170604 13.80510939 7.78854947 15.77459115 8.7109375 17.74414062 C13.06875659 27.27767639 13.06875659 27.27767639 12.77880859 30.32373047 C11.64064065 32.77346749 10.19709316 33.26316701 7.75 34.3125 C6.59757812 34.83263672 6.59757812 34.83263672 5.421875 35.36328125 C2.44782851 36.14516766 0.91298233 35.98235351 -2 35 C-3.5456543 32.83862305 -3.5456543 32.83862305 -4.82421875 30.01171875 C-5.29537109 28.99529297 -5.76652344 27.97886719 -6.25195312 26.93164062 C-6.72568359 25.86107422 -7.19941406 24.79050781 -7.6875 23.6875 C-8.17283203 22.62853516 -8.65816406 21.56957031 -9.15820312 20.47851562 C-10.06155152 18.50610113 -10.9571542 16.530108 -11.8425293 14.54956055 C-12.57151952 12.94381389 -13.33885906 11.35441815 -14.15844727 9.79296875 C-15 8 -15 8 -14.890625 5.92578125 C-13.67807881 3.30391602 -12.2648422 2.56566684 -9.75 1.1875 C-8.98171875 0.74792969 -8.2134375 0.30835937 -7.421875 -0.14453125 C-4.36018616 -1.22599876 -3.05025012 -1.11277967 0 0 Z " fill="#1D1E23" transform="translate(194,116)"/>
<path d="M0 0 C1.50444121 2.45855005 2.73807753 4.77345238 3.9375 7.375 C4.28159912 8.09800293 4.62569824 8.82100586 4.98022461 9.56591797 C5.67212985 11.02486162 6.35815683 12.48660851 7.03808594 13.95117188 C7.8818063 15.74825341 8.76950163 17.52455253 9.6640625 19.296875 C11.54505936 23.10090217 12.9128985 26.20156961 13.375 30.4375 C11.44910569 34.02666667 8.97558789 34.93792528 5.32421875 36.53125 C3 37 3 37 0.953125 36.55859375 C-2.04024723 34.16988271 -3.35240938 30.96051367 -4.9375 27.5625 C-5.28087402 26.84473389 -5.62424805 26.12696777 -5.97802734 25.38745117 C-6.66830803 23.93973873 -7.35359762 22.48963516 -8.03369141 21.03710938 C-8.88954945 19.23284471 -9.79115097 17.45043534 -10.69921875 15.671875 C-11.16972656 14.72828125 -11.64023437 13.7846875 -12.125 12.8125 C-12.54007812 11.99394531 -12.95515625 11.17539062 -13.3828125 10.33203125 C-14.21684022 7.18067335 -13.61563703 5.79022373 -12 3 C-10.1953125 1.6015625 -10.1953125 1.6015625 -8.125 0.625 C-7.44695312 0.28726562 -6.76890625 -0.05046875 -6.0703125 -0.3984375 C-3.56512406 -1.12636018 -2.42988746 -0.89993628 0 0 Z " fill="#232328" transform="translate(307,348)"/>
<path d="M0 0 C0.70765749 1.1966397 1.39025121 2.40811576 2.0625 3.625 C2.44535156 4.29789062 2.82820313 4.97078125 3.22265625 5.6640625 C4.28628135 8.86028265 3.9209677 10.77363214 3 14 C0.79443359 15.67504883 0.79443359 15.67504883 -2.1015625 16.95703125 C-3.14957031 17.42947266 -4.19757813 17.90191406 -5.27734375 18.38867188 C-6.38207031 18.85853516 -7.48679688 19.32839844 -8.625 19.8125 C-9.70652344 20.30169922 -10.78804687 20.79089844 -11.90234375 21.29492188 C-17.28205523 23.66948317 -22.10857391 25.62018027 -28 26 C-28.89429374 24.4274835 -29.76487427 22.84146259 -30.625 21.25 C-31.11226563 20.36828125 -31.59953125 19.4865625 -32.1015625 18.578125 C-33 16 -33 16 -32.625 13.921875 C-30.11910819 10.95817603 -26.82849543 9.60452782 -23.375 8 C-22.68792969 7.67 -22.00085938 7.34 -21.29296875 7 C-19.90234348 6.33208242 -18.50875088 5.67030884 -17.11230469 5.01464844 C-14.31695331 3.67189759 -11.57990957 2.22254571 -8.84619141 0.75878906 C-5.8176667 -0.4859418 -3.23113745 -0.26926145 0 0 Z " fill="#1C1D21" transform="translate(148,294)"/>
<path d="M0 0 C4.58477988 0.44948822 8.6789261 1.4191193 13 3 C13.74166635 10.20774337 11.06999209 16.20864775 8.5625 22.875 C8.14162109 24.02742188 7.72074219 25.17984375 7.28710938 26.3671875 C4.16753472 34.83246528 4.16753472 34.83246528 3 36 C-2.67776737 36.38493338 -5.99592499 36.00244501 -11 33 C-10.50126657 25.65258788 -8.15073075 19.3944918 -5.5 12.5625 C-5.08363281 11.46228516 -4.66726562 10.36207031 -4.23828125 9.22851562 C-1.15739729 1.15739729 -1.15739729 1.15739729 0 0 Z " fill="#222227" transform="translate(207,354)"/>
<path d="M0 0 C6.87760055 0.3497085 12.39876097 2.06629563 18.76171875 4.67578125 C20.82598484 5.51991418 22.91154533 6.31485459 25.01953125 7.04296875 C25.92058594 7.35878906 26.82164062 7.67460937 27.75 8 C28.54921875 8.268125 29.3484375 8.53625 30.171875 8.8125 C32 10 32 10 32.8515625 12.359375 C33.00751944 15.13376697 32.68360745 16.70545732 31.625 19.25 C31.34914062 19.93578125 31.07328125 20.6215625 30.7890625 21.328125 C30 23 30 23 29 24 C22.6220254 23.5892152 17.24296052 21.86072898 11.3125 19.5625 C10.48427734 19.24990234 9.65605469 18.93730469 8.80273438 18.61523438 C7.21883313 18.01540628 5.63803119 17.40730511 4.06103516 16.78955078 C2.38715547 16.14831329 0.68663579 15.57693701 -1.01953125 15.02734375 C-3 14 -3 14 -3.93359375 12.203125 C-4.02071388 9.31278652 -3.21074304 7.39443851 -2.0625 4.75 C-1.68222656 3.85796875 -1.30195312 2.9659375 -0.91015625 2.046875 C-0.60980469 1.37140625 -0.30945313 0.6959375 0 0 Z " fill="#212126" transform="translate(113,196)"/>
<path d="M0 0 C0 3 0 3 -1 6 C0.32 6 1.64 6 3 6 C4.75 8.5 4.75 8.5 6 11 C1.25 15 1.25 15 -1 15 C-1 15.66 -1 16.32 -1 17 C-3.5157371 18.46776498 -6.03698982 19.92422235 -8.5625 21.375 C-9.26697266 21.7875 -9.97144531 22.2 -10.69726562 22.625 C-15.07650014 25.12741972 -19.09094621 26.8259556 -24 28 C-22.515 24.535 -22.515 24.535 -21 21 C-20.34 21 -19.68 21 -19 21 C-18.67 19.02 -18.34 17.04 -18 15 C-18.66 14.67 -19.32 14.34 -20 14 C-18.89140625 13.32453125 -17.7828125 12.6490625 -16.640625 11.953125 C-15.17690448 11.05237391 -13.7133727 10.15131606 -12.25 9.25 C-11.52039063 8.8065625 -10.79078125 8.363125 -10.0390625 7.90625 C-6.26657758 5.57416841 -2.97352553 3.34912876 0 0 Z " fill="#2E2E32" transform="translate(311,319)"/>
<path d="M0 0 C0 0.66 0 1.32 0 2 C0.7425 2.268125 1.485 2.53625 2.25 2.8125 C4.93191253 3.97059859 6.89701139 4.97489986 9 7 C9 8.32 9 9.64 9 11 C9.66 11 10.32 11 11 11 C11 11.66 11 12.32 11 13 C9.02 13.66 7.04 14.32 5 15 C5 15.66 5 16.32 5 17 C4.34 17 3.68 17 3 17 C3 15.68 3 14.36 3 13 C1.68 12.67 0.36 12.34 -1 12 C-0.34 10.02 0.32 8.04 1 6 C-0.32 6.33 -1.64 6.66 -3 7 C-3 7.66 -3 8.32 -3 9 C-2.34 9.33 -1.68 9.66 -1 10 C-2.32 10 -3.64 10 -5 10 C-5 9.34 -5 8.68 -5 8 C-5.99 7.67 -6.98 7.34 -8 7 C-7.39816251 4.97954558 -6.72693904 2.97888961 -6 1 C-4 0 -4 0 0 0 Z " fill="#0C0C12" transform="translate(310,164)"/>
<path d="M0 0 C0.33 1.32 0.66 2.64 1 4 C0.34 3.34 -0.32 2.68 -1 2 C-0.67 1.34 -0.34 0.68 0 0 Z M0 4 C0.11021681 7.16184482 -0.05391572 9.96846112 -1 13 C-5.01889715 17.11691903 -10.52404285 18.74509315 -16 20 C-15.01 17.69 -14.02 15.38 -13 13 C-12.34 13 -11.68 13 -11 13 C-10.814375 11.8553125 -10.814375 11.8553125 -10.625 10.6875 C-10 8 -10 8 -8 5 C-5.1512821 3.95547011 -3.12305119 4 0 4 Z " fill="#1D1D21" transform="translate(303,327)"/>
<path d="M0 0 C3.4375 1.5625 3.4375 1.5625 6 3 C6.41247574 8.44811706 4.98910997 12.42014497 3 17.375 C2.57074219 18.47908203 2.57074219 18.47908203 2.1328125 19.60546875 C1.43085139 21.40716893 0.71665595 23.20409432 0 25 C-0.33 25 -0.66 25 -1 25 C-1 21.7 -1 18.4 -1 15 C-0.01 15.33 0.98 15.66 2 16 C1.649375 15.443125 1.29875 14.88625 0.9375 14.3125 C0 12 0 12 0.5625 9.4375 C0.706875 8.633125 0.85125 7.82875 1 7 C-0.33378575 5.1645201 -0.33378575 5.1645201 -2 4 C-1.67 3.01 -1.34 2.02 -1 1 C-3.475 2.485 -3.475 2.485 -6 4 C-6.99 3.34 -7.98 2.68 -9 2 C-9 1.34 -9 0.68 -9 0 C-5.84651502 -1.57674249 -3.39455853 -0.67891171 0 0 Z " fill="#3F3D41" transform="translate(298,110)"/>
<path d="M0 0 C2.64 1.32 5.28 2.64 8 4 C7.360625 4.391875 6.72125 4.78375 6.0625 5.1875 C3.82641348 6.86526578 3.82641348 6.86526578 3.0625 9.5 C2.73136871 12.05887761 2.73136871 12.05887761 4.4375 13.8125 C4.953125 14.204375 5.46875 14.59625 6 15 C6.33 14.67 6.66 14.34 7 14 C7 13.34 7 12.68 7 12 C8.32 11.67 9.64 11.34 11 11 C10.67 12.98 10.34 14.96 10 17 C10.99 17.33 11.98 17.66 13 18 C12.67 19.32 12.34 20.64 12 22 C10.24673802 20.75457942 8.49752378 19.50345947 6.75 18.25 C5.77546875 17.55390625 4.8009375 16.8578125 3.796875 16.140625 C1.29446127 14.2253698 -0.91646828 12.36133595 -3 10 C-3 9.34 -3 8.68 -3 8 C-1.02 7.34 0.96 6.68 3 6 C2.2575 5.071875 2.2575 5.071875 1.5 4.125 C0 2 0 2 0 0 Z " fill="#424145" transform="translate(300,159)"/>
<path d="M0 0 C0.928125 0.0825 1.85625 0.165 2.8125 0.25 C3.1425 0.91 3.4725 1.57 3.8125 2.25 C5.45613134 2.97159424 7.12300386 3.64351421 8.8125 4.25 C8.4825 5.24 8.1525 6.23 7.8125 7.25 C6.8225 6.92 5.8325 6.59 4.8125 6.25 C4.8125 7.24 4.8125 8.23 4.8125 9.25 C1.5 9.9375 1.5 9.9375 -2.1875 10.25 C-4.8354735 8.48468433 -5.1644986 7.31900421 -6.1875 4.25 C-4.54372659 0.86576062 -3.81373731 0.29911665 0 0 Z " fill="#111217" transform="translate(286.1875,152.75)"/>
<path d="M0 0 C0.33 0 0.66 0 1 0 C1 13.53 1 27.06 1 41 C2.65 41 4.3 41 6 41 C6 41.33 6 41.66 6 42 C3.36 42 0.72 42 -2 42 C-2 36.12026483 -1.76438783 30.25083973 -1.5625 24.375 C-1.52318359 23.14136719 -1.48386719 21.90773438 -1.44335938 20.63671875 C-1.2045142 13.72123241 -0.81298433 6.87295955 0 0 Z " fill="#828182" transform="translate(255,302)"/>
<path d="M0 0 C0.66 0.33 1.32 0.66 2 1 C0.68 1.33 -0.64 1.66 -2 2 C-2 2.66 -2 3.32 -2 4 C-3.62626404 5.38232443 -5.2925002 6.71937515 -7 8 C-6.484375 8.4125 -5.96875 8.825 -5.4375 9.25 C-4.963125 9.8275 -4.48875 10.405 -4 11 C-4.3125 13.1875 -4.3125 13.1875 -5 15 C-5.66 15 -6.32 15 -7 15 C-7.33 15.99 -7.66 16.98 -8 18 C-8.72750788 16.59308393 -9.43140353 15.17393978 -10.125 13.75 C-10.51945312 12.96109375 -10.91390625 12.1721875 -11.3203125 11.359375 C-12 9 -12 9 -11.4296875 6.87890625 C-9.57965036 4.44757329 -7.74442065 3.50785354 -5 2.1875 C-4.113125 1.74792969 -3.22625 1.30835938 -2.3125 0.85546875 C-1.1678125 0.43201172 -1.1678125 0.43201172 0 0 Z " fill="#28252B" transform="translate(127,301)"/>
<path d="M0 0 C4.75 0.75 4.75 0.75 7 3 C7.33 3.66 7.66 4.32 8 5 C8.66 5 9.32 5 10 5 C10 5.66 10 6.32 10 7 C8.02 7.66 6.04 8.32 4 9 C4 9.66 4 10.32 4 11 C3.34 11 2.68 11 2 11 C2 9.68 2 8.36 2 7 C0.68 6.67 -0.64 6.34 -2 6 C-1.34 4.02 -0.68 2.04 0 0 Z " fill="#0B0E13" transform="translate(311,170)"/>
<path d="M0 0 C0.6875 1.8125 0.6875 1.8125 1 4 C-1.15849446 6.78332181 -3.3718166 7.67837897 -6.6875 8.6875 C-7.89986328 9.06455078 -7.89986328 9.06455078 -9.13671875 9.44921875 C-9.75160156 9.63097656 -10.36648438 9.81273437 -11 10 C-11.66 9.34 -12.32 8.68 -13 8 C-12.625 5.375 -12.625 5.375 -12 3 C-11.01 3 -10.02 3 -9 3 C-8.67 3.99 -8.34 4.98 -8 6 C-7.21625 5.649375 -6.4325 5.29875 -5.625 4.9375 C-4.75875 4.628125 -3.8925 4.31875 -3 4 C-2.34 4.33 -1.68 4.66 -1 5 C-0.67 3.35 -0.34 1.7 0 0 Z " fill="#434045" transform="translate(319,375)"/>
<path d="M0 0 C0 3.61537605 -0.89229241 5.11165997 -3 8 C-3.99 8 -4.98 8 -6 8 C-6 9.32 -6 10.64 -6 12 C-6.66 12 -7.32 12 -8 12 C-8 12.99 -8 13.98 -8 15 C-9.65 15.66 -11.3 16.32 -13 17 C-11.5479686 13.83715933 -9.77057857 11.23584692 -7.625 8.5 C-7.03976563 7.7471875 -6.45453125 6.994375 -5.8515625 6.21875 C-4.01007066 4.0120678 -2.06288066 1.9992676 0 0 Z " fill="#39383B" transform="translate(178,175)"/>
<path d="M0 0 C0 0.66 0 1.32 0 2 C-0.99 2.33 -1.98 2.66 -3 3 C-3.66 3.66 -4.32 4.32 -5 5 C-6.32303717 5.3721042 -7.65737935 5.70630173 -9 6 C-9.99 6.495 -9.99 6.495 -11 7 C-11.66 6.67 -12.32 6.34 -13 6 C-13.33 7.32 -13.66 8.64 -14 10 C-14 9.01 -14 8.02 -14 7 C-15.65 7 -17.3 7 -19 7 C-15.78036326 4.85357551 -12.55570141 3.64118646 -8.9375 2.375 C-8.30005859 2.14554687 -7.66261719 1.91609375 -7.00585938 1.6796875 C-2.261742 0 -2.261742 0 0 0 Z " fill="#6B686D" transform="translate(290,334)"/>
<path d="M0 0 C2 2 2 2 2.125 4.4375 C1 7 1 7 -0.85546875 7.9921875 C-2.88753762 8.74746973 -4.91289576 9.41523047 -7 10 C-6.67 8.68 -6.34 7.36 -6 6 C-5.34 6 -4.68 6 -4 6 C-3.34 4.68 -2.68 3.36 -2 2 C-1.67 2.33 -1.34 2.66 -1 3 C-0.67 2.01 -0.34 1.02 0 0 Z " fill="#545055" transform="translate(383,187)"/>
<path d="M0 0 C2.75 -0.25 2.75 -0.25 6 0 C8.375 2 8.375 2 10 4 C6.18243176 5.37432457 2.92744671 4.67975039 -1 4 C-0.67 2.68 -0.34 1.36 0 0 Z " fill="#110E13" transform="translate(358,281)"/>
<path d="M0 0 C0.66 0 1.32 0 2 0 C2 0.66 2 1.32 2 2 C2.7425 2.268125 3.485 2.53625 4.25 2.8125 C6.86636554 3.94229421 8.80187111 5.20893202 11 7 C10.67 7.99 10.34 8.98 10 10 C9.5875 9.525625 9.175 9.05125 8.75 8.5625 C6.77951911 6.80314207 5.53679793 6.55492455 3 6 C2.01 5.34 1.02 4.68 0 4 C0 2.68 0 1.36 0 0 Z " fill="#545058" transform="translate(308,164)"/>
<path d="M0 0 C2.39456443 2.39456443 2.75546876 3.65807308 3 7 C1.18682851 9.53844009 0.01532925 9.99489025 -3 11 C-2.32829194 7.1936543 -1.27253436 3.64793184 0 0 Z " fill="#4C4C53" transform="translate(204,139)"/>
<path d="M0 0 C0.33 0.66 0.66 1.32 1 2 C1.99 1.67 2.98 1.34 4 1 C3.67 2.32 3.34 3.64 3 5 C-1.97093824 4.58846263 -6.44508386 4.20399168 -11 2 C-7.42355152 0.7619986 -4.66305234 1.25073929 -1 2 C-0.67 1.34 -0.34 0.68 0 0 Z " fill="#766E76" transform="translate(291,141)"/>
<path d="M0 0 C-0.33 1.98 -0.66 3.96 -1 6 C-0.01 6.33 0.98 6.66 2 7 C1.67 8.32 1.34 9.64 1 11 C-1.5 9.25 -1.5 9.25 -4 7 C-4 5 -4 3 -4 1 C-2 0 -2 0 0 0 Z " fill="#2F2E34" transform="translate(311,170)"/>
<path d="M0 0 C0.99 0.99 1.98 1.98 3 3 C2.2575 3.6496875 2.2575 3.6496875 1.5 4.3125 C-0.33218192 5.99740483 -0.33218192 5.99740483 0 9 C-1.65 8.67 -3.3 8.34 -5 8 C-5 7.34 -5 6.68 -5 6 C-4.34 6 -3.68 6 -3 6 C-2.690625 5.38125 -2.38125 4.7625 -2.0625 4.125 C-1.375 2.75 -0.6875 1.375 0 0 Z " fill="#39363C" transform="translate(324,305)"/>
<path d="M0 0 C-0.66 1.32 -1.32 2.64 -2 4 C-2.66 4 -3.32 4 -4 4 C-4.66 5.32 -5.32 6.64 -6 8 C-7.65 7.67 -9.3 7.34 -11 7 C-4.48275862 0 -4.48275862 0 0 0 Z " fill="#3D3C3F" transform="translate(201,159)"/>
<path d="M0 0 C0.99 0.99 1.98 1.98 3 3 C1.84826645 5.46800047 0.95216435 7.04783565 -1 9 C-1.66 6.36 -2.32 3.72 -3 1 C-2.01 0.67 -1.02 0.34 0 0 Z " fill="#333336" transform="translate(155,282)"/>
<path d="M0 0 C0.33 1.32 0.66 2.64 1 4 C0.34 3.34 -0.32 2.68 -1 2 C-0.67 1.34 -0.34 0.68 0 0 Z M-4 4 C-2.68 4 -1.36 4 0 4 C-0.33 6.64 -0.66 9.28 -1 12 C-1.66 12 -2.32 12 -3 12 C-3.66 9.69 -4.32 7.38 -5 5 C-4.67 4.67 -4.34 4.34 -4 4 Z " fill="#0C0E13" transform="translate(303,327)"/>
<path d="M0 0 C0.57234375 0.21527344 1.1446875 0.43054688 1.734375 0.65234375 C1.734375 1.31234375 1.734375 1.97234375 1.734375 2.65234375 C-4.015625 4.65234375 -4.015625 4.65234375 -6.265625 4.65234375 C-6.925625 5.31234375 -7.585625 5.97234375 -8.265625 6.65234375 C-8.925625 5.99234375 -9.585625 5.33234375 -10.265625 4.65234375 C-9.02618224 3.78292881 -7.77355441 2.93228918 -6.515625 2.08984375 C-5.81953125 1.61417969 -5.1234375 1.13851563 -4.40625 0.6484375 C-2.265625 -0.34765625 -2.265625 -0.34765625 0 0 Z " fill="#4A474D" transform="translate(301.265625,328.34765625)"/>
<path d="M0 0 C1.98 0.99 1.98 0.99 4 2 C3.53199289 6.05606165 3.12046792 9.46588679 1 13 C-0.10228696 8.59085217 -0.07654536 4.51617599 0 0 Z " fill="#5E595F" transform="translate(142,205)"/>
<path d="M0 0 C0.92440244 3.69760976 1.10060884 4.6531224 0.1875 8.0625 C0.01605469 8.73410156 -0.15539062 9.40570313 -0.33203125 10.09765625 C-1 12 -1 12 -3 15 C-3.66 14.67 -4.32 14.34 -5 14 C-3.35 9.38 -1.7 4.76 0 0 Z " fill="#767277" transform="translate(284,125)"/>
<path d="M0 0 C0.33 0.66 0.66 1.32 1 2 C3.52733235 2.65555119 3.52733235 2.65555119 6 3 C3.3144406 5.6855594 0.62378672 6.06049974 -3 7 C-2.01 4.69 -1.02 2.38 0 0 Z " fill="#504E53" transform="translate(290,340)"/>
<path d="M0 0 C0.99 0.33 1.98 0.66 3 1 C2.67 2.32 2.34 3.64 2 5 C1.34 5 0.68 5 0 5 C-1.62514468 6.45833358 -1.62514468 6.45833358 -3 8 C-3.33 7.34 -3.66 6.68 -4 6 C-3.0625 3.875 -3.0625 3.875 -2 2 C-1.34 2 -0.68 2 0 2 C0 1.34 0 0.68 0 0 Z " fill="#0E0D13" transform="translate(380,186)"/>
<path d="M0 0 C2.22825644 2.22825644 2.69239369 3.65761628 3.625 6.625 C3.88539063 7.44226563 4.14578125 8.25953125 4.4140625 9.1015625 C4.60742188 9.72804688 4.80078125 10.35453125 5 11 C0.68393782 8.00518135 0.68393782 8.00518135 -1 6 C-0.875 2.6875 -0.875 2.6875 0 0 Z " fill="#615F63" transform="translate(194,118)"/>
<path d="M0 0 C-0.99 1.32 -1.98 2.64 -3 4 C-5.31 3.67 -7.62 3.34 -10 3 C-6.84439813 -0.15560187 -4.30999015 -1.43666338 0 0 Z " fill="#555559" transform="translate(219,152)"/>
<path d="M0 0 C0.99 0.33 1.98 0.66 3 1 C3.6875 3.0625 3.6875 3.0625 4 5 C1.03 4.505 1.03 4.505 -2 4 C-1.34 2.68 -0.68 1.36 0 0 Z " fill="#0F1014" transform="translate(337,294)"/>
<path d="M0 0 C0.99 0.33 1.98 0.66 3 1 C2.67 2.32 2.34 3.64 2 5 C-0.875 5.125 -0.875 5.125 -4 5 C-4.66 4.34 -5.32 3.68 -6 3 C-3.03 3.495 -3.03 3.495 0 4 C-0.33 3.01 -0.66 2.02 -1 1 C-0.67 0.67 -0.34 0.34 0 0 Z " fill="#676167" transform="translate(385,299)"/>
<path d="M0 0 C0.66 0 1.32 0 2 0 C1.67 2.97 1.34 5.94 1 9 C-0.5625 7.25 -0.5625 7.25 -2 5 C-1.75203633 2.83031791 -1.55766393 1.55766393 0 0 Z " fill="#665F67" transform="translate(181,119)"/>
<path d="M0 0 C-1.32 1.32 -2.64 2.64 -4 4 C-4.99 3.34 -5.98 2.68 -7 2 C-7 1.34 -7 0.68 -7 0 C-4.3333581 -1.33332095 -2.83319697 -0.67102033 0 0 Z " fill="#424044" transform="translate(296,110)"/>
<path d="M0 0 C0.66 1.32 1.32 2.64 2 4 C1.01 5.485 1.01 5.485 0 7 C-0.38499891 8.65549531 -0.72793135 10.3222433 -1 12 C-1.66 12 -2.32 12 -3 12 C-2.40075776 7.80530429 -1.42500059 3.99000166 0 0 Z " fill="#756C72" transform="translate(288,113)"/>
<path d="M0 0 C1.0625 1.8125 1.0625 1.8125 2 4 C1.67 4.99 1.34 5.98 1 7 C0.34 7 -0.32 7 -1 7 C-1.33 7.99 -1.66 8.98 -2 10 C-3 8 -3 8 -2.44140625 6.0546875 C-2.15136719 5.33539063 -1.86132812 4.61609375 -1.5625 3.875 C-1.27503906 3.15054687 -0.98757812 2.42609375 -0.69140625 1.6796875 C-0.46324219 1.12539063 -0.23507813 0.57109375 0 0 Z " fill="#574F5A" transform="translate(205,357)"/>
<path d="M0 0 C0.66 0.33 1.32 0.66 2 1 C0.68 1.33 -0.64 1.66 -2 2 C-2 2.66 -2 3.32 -2 4 C-4.5 5.625 -4.5 5.625 -7 7 C-7.33 6.01 -7.66 5.02 -8 4 C-6.71349294 3.30289269 -5.42059335 2.61757124 -4.125 1.9375 C-3.40570313 1.55464844 -2.68640625 1.17179687 -1.9453125 0.77734375 C-1.30335937 0.52082031 -0.66140625 0.26429688 0 0 Z " fill="#5E5C63" transform="translate(127,301)"/>
<path d="M0 0 C0.66 0 1.32 0 2 0 C1.25 2.9375 1.25 2.9375 0 6 C-2.125 6.875 -2.125 6.875 -4 7 C-2.68 4.69 -1.36 2.38 0 0 Z " fill="#4E4B53" transform="translate(329,298)"/>
<path d="M0 0 C0.99 0 1.98 0 3 0 C2.01 2.97 1.02 5.94 0 9 C-0.95904856 5.16380575 -0.91892116 3.67568464 0 0 Z " fill="#57555A" transform="translate(345,284)"/>
<path d="M0 0 C0 0.99 0 1.98 0 3 C-1.32 3.33 -2.64 3.66 -4 4 C-4.66 2.68 -5.32 1.36 -6 0 C-3.50907189 -1.24546405 -2.58919267 -0.7767578 0 0 Z " fill="#5B555C" transform="translate(380,180)"/>
<path d="M0 0 C0.99 0.33 1.98 0.66 3 1 C2.67 2.65 2.34 4.3 2 6 C1.01 5.67 0.02 5.34 -1 5 C-1 4.34 -1 3.68 -1 3 C-1.66 2.67 -2.32 2.34 -3 2 C-2.01 1.34 -1.02 0.68 0 0 Z " fill="#111417" transform="translate(306,164)"/>
<path d="M0 0 C0.33 0 0.66 0 1 0 C1.625 2.875 1.625 2.875 2 6 C1.34 6.66 0.68 7.32 0 8 C-1.5625 5.625 -1.5625 5.625 -3 3 C-2.67 2.34 -2.34 1.68 -2 1 C-1.34 1.33 -0.68 1.66 0 2 C0 1.34 0 0.68 0 0 Z " fill="#605E63" transform="translate(191,140)"/>
<path d="M0 0 C0.721875 0.845625 1.44375 1.69125 2.1875 2.5625 C-1.1125 1.5725 -4.4125 0.5825 -7.8125 -0.4375 C-7.8125 -0.7675 -7.8125 -1.0975 -7.8125 -1.4375 C-3.93054643 -2.87936847 -3.23937503 -2.80745836 0 0 Z " fill="#626164" transform="translate(216.8125,346.4375)"/>
<path d="M0 0 C2.31 0.33 4.62 0.66 7 1 C3.375 4 3.375 4 0 4 C0 2.68 0 1.36 0 0 Z " fill="#474549" transform="translate(137,309)"/>
<path d="M0 0 C0.66 0 1.32 0 2 0 C2 0.66 2 1.32 2 2 C4.31 2.33 6.62 2.66 9 3 C8.34 3.66 7.68 4.32 7 5 C4.5 4.875 4.5 4.875 2 4 C0.6875 1.9375 0.6875 1.9375 0 0 Z " fill="#807D81" transform="translate(350,202)"/>
<path d="M0 0 C3 1 3 1 6 3 C5.01 4.32 4.02 5.64 3 7 C0 2.25 0 2.25 0 0 Z " fill="#524F54" transform="translate(330,202)"/>
<path d="M0 0 C2.75 -0.3125 2.75 -0.3125 6 0 C8.375 2.5 8.375 2.5 10 5 C8.51800098 4.55090939 7.03944764 4.09043436 5.5625 3.625 C4.73878906 3.36976563 3.91507813 3.11453125 3.06640625 2.8515625 C1 2 1 2 0 0 Z " fill="#666469" transform="translate(199,340)"/>
<path d="M0 0 C0.99 0.33 1.98 0.66 3 1 C2.67 1.66 2.34 2.32 2 3 C3.32 3.66 4.64 4.32 6 5 C5.34 5 4.68 5 4 5 C3.67 5.99 3.34 6.98 3 8 C0 2.25 0 2.25 0 0 Z " fill="#5B585B" transform="translate(116,311)"/>
<path d="M0 0 C0.66 0.33 1.32 0.66 2 1 C1.34 1.66 0.68 2.32 0 3 C-0.99 3 -1.98 3 -3 3 C-3 3.66 -3 4.32 -3 5 C-3.99 5.33 -4.98 5.66 -6 6 C-6.66 5.34 -7.32 4.68 -8 4 C-6.71349294 3.30289269 -5.42059335 2.61757124 -4.125 1.9375 C-3.40570313 1.55464844 -2.68640625 1.17179687 -1.9453125 0.77734375 C-1.30335938 0.52082031 -0.66140625 0.26429688 0 0 Z " fill="#686669" transform="translate(137,296)"/>
<path d="M0 0 C0 0.99 0 1.98 0 3 C-1.98 3.66 -3.96 4.32 -6 5 C-5.6875 3.0625 -5.6875 3.0625 -5 1 C-2 0 -2 0 0 0 Z " fill="#434145" transform="translate(382,192)"/>
</svg>
